<?xml version="1.0" encoding="UTF-8" standalone="no"?><svg xmlns="http://www.w3.org/2000/svg" xmlns:xlink="http://www.w3.org/1999/xlink" contentScriptType="application/ecmascript" contentStyleType="text/css" height="1335px" preserveAspectRatio="none" style="width:452px;height:1335px;" version="1.1" viewBox="0 0 452 1335" width="452px" zoomAndPan="magnify"><defs/><rect fill="#FFFFFF" height="100%" width="100%" x="0" y="0"/><g><text fill="#000000" font-family="sans-serif" font-size="18" lengthAdjust="spacingAndGlyphs" textLength="428" x="12" y="29.2419">D&amp;D Simple - Reference Data Transformation Flow</text><ellipse cx="226.5" cy="44.5158" fill="#000000" rx="10" ry="10" style="stroke: none; stroke-width: 1.0;"/><rect fill="#F8F8F8" height="36.3441" rx="12.5" ry="12.5" style="stroke: #333333; stroke-width: 1.5;" width="185" x="134" y="74.5158"/><text fill="#000000" font-family="sans-serif" font-size="12" lengthAdjust="spacingAndGlyphs" textLength="165" x="144" y="97.3439">Run `apps/api/prisma/seed.ts`</text><rect fill="#F8F8F8" height="36.3441" rx="12.5" ry="12.5" style="stroke: #333333; stroke-width: 1.5;" width="220" x="116.5" y="130.86"/><text fill="#000000" font-family="sans-serif" font-size="12" lengthAdjust="spacingAndGlyphs" textLength="200" x="126.5" y="153.6881">Load environment and Prisma client</text><rect fill="#F8F8F8" height="52.6882" rx="12.5" ry="12.5" style="stroke: #333333; stroke-width: 1.5;" width="159" x="147" y="187.2041"/><text fill="#000000" font-family="sans-serif" font-size="12" lengthAdjust="spacingAndGlyphs" textLength="139" x="157" y="210.0322">Use active data directory</text><text fill="#000000" font-family="sans-serif" font-size="12" lengthAdjust="spacingAndGlyphs" textLength="118" x="157" y="226.3763">`seed-data/5e/mixed`</text><rect fill="#FFFFFF" height="160.1003" style="stroke: #000000; stroke-width: 2.0;" width="215" x="119" y="251.4943"/><path d="M210,252.4943 L210,263.5622 L200,273.5622 L119,273.5622 " fill="none" style="stroke: #000000; stroke-width: 2.0;"/><text fill="#000000" font-family="sans-serif" font-size="14" lengthAdjust="spacingAndGlyphs" textLength="81" x="122" y="267.4602">Seed Inputs</text><rect fill="#F8F8F8" height="36.3441" rx="12.5" ry="12.5" style="stroke: #333333; stroke-width: 1.5;" width="181" x="136" y="290.5622"/><text fill="#000000" font-family="sans-serif" font-size="12" lengthAdjust="spacingAndGlyphs" textLength="161" x="146" y="313.3903">Read configured JSON arrays</text><rect fill="#F8F8F8" height="52.6882" rx="12.5" ry="12.5" style="stroke: #333333; stroke-width: 1.5;" width="195" x="129" y="346.9063"/><text fill="#000000" font-family="sans-serif" font-size="12" lengthAdjust="spacingAndGlyphs" textLength="175" x="139" y="369.7344">Read curated override modules</text><text fill="#000000" font-family="sans-serif" font-size="12" lengthAdjust="spacingAndGlyphs" textLength="152" x="139" y="386.0785">from `reference-overrides/`</text><rect fill="#FFFFFF" height="410.8532" style="stroke: #000000; stroke-width: 2.0;" width="223" x="115" y="423.1965"/><path d="M273,424.1965 L273,435.2644 L263,445.2644 L115,445.2644 " fill="none" style="stroke: #000000; stroke-width: 2.0;"/><text fill="#000000" font-family="sans-serif" font-size="14" lengthAdjust="spacingAndGlyphs" textLength="148" x="118" y="439.1625">Normalize and Curate</text><rect fill="#F8F8F8" height="52.6882" rx="12.5" ry="12.5" style="stroke: #333333; stroke-width: 1.5;" width="140" x="156.5" y="462.2644"/><text fill="#000000" font-family="sans-serif" font-size="12" lengthAdjust="spacingAndGlyphs" textLength="120" x="166.5" y="485.0925">Upsert raw items into</text><text fill="#000000" font-family="sans-serif" font-size="12" lengthAdjust="spacingAndGlyphs" textLength="106" x="166.5" y="501.4366">`RefRuleDocument`</text><rect fill="#F8F8F8" height="69.0323" rx="12.5" ry="12.5" style="stroke: #333333; stroke-width: 1.5;" width="184" x="134.5" y="534.9527"/><text fill="#000000" font-family="sans-serif" font-size="12" lengthAdjust="spacingAndGlyphs" textLength="160" x="144.5" y="557.7808">Seed normalized ability, skill,</text><text fill="#000000" font-family="sans-serif" font-size="12" lengthAdjust="spacingAndGlyphs" textLength="151" x="144.5" y="574.1249">species, class, background,</text><text fill="#000000" font-family="sans-serif" font-size="12" lengthAdjust="spacingAndGlyphs" textLength="164" x="144.5" y="590.469">proficiency, equipment tables</text><rect fill="#F8F8F8" height="52.6882" rx="12.5" ry="12.5" style="stroke: #333333; stroke-width: 1.5;" width="160" x="146.5" y="623.985"/><text fill="#000000" font-family="sans-serif" font-size="12" lengthAdjust="spacingAndGlyphs" textLength="140" x="156.5" y="646.8131">Rebuild relationship rows</text><text fill="#000000" font-family="sans-serif" font-size="12" lengthAdjust="spacingAndGlyphs" textLength="90" x="156.5" y="663.1572">and choice rows</text><rect fill="#F8F8F8" height="52.6882" rx="12.5" ry="12.5" style="stroke: #333333; stroke-width: 1.5;" width="188" x="132.5" y="696.6732"/><text fill="#000000" font-family="sans-serif" font-size="12" lengthAdjust="spacingAndGlyphs" textLength="159" x="142.5" y="719.5013">Apply curated species, class,</text><text fill="#000000" font-family="sans-serif" font-size="12" lengthAdjust="spacingAndGlyphs" textLength="168" x="142.5" y="735.8454">feat, and equipment overrides</text><rect fill="#F8F8F8" height="52.6882" rx="12.5" ry="12.5" style="stroke: #333333; stroke-width: 1.5;" width="203" x="125" y="769.3615"/><text fill="#000000" font-family="sans-serif" font-size="12" lengthAdjust="spacingAndGlyphs" textLength="183" x="135" y="792.1896">Seed minimum demo references</text><text fill="#000000" font-family="sans-serif" font-size="12" lengthAdjust="spacingAndGlyphs" textLength="141" x="135" y="808.5337">and demo character data</text><rect fill="#FFFFFF" height="120.1003" style="stroke: #000000; stroke-width: 2.0;" width="232" x="110.5" y="845.6517"/><path d="M296.5,846.6517 L296.5,857.7196 L286.5,867.7196 L110.5,867.7196 " fill="none" style="stroke: #000000; stroke-width: 2.0;"/><text fill="#000000" font-family="sans-serif" font-size="14" lengthAdjust="spacingAndGlyphs" textLength="176" x="113.5" y="861.6176">Runtime PostgreSQL State</text><rect fill="#F8F8F8" height="69.0323" rx="12.5" ry="12.5" style="stroke: #333333; stroke-width: 1.5;" width="212" x="120.5" y="884.7196"/><text fill="#000000" font-family="sans-serif" font-size="12" lengthAdjust="spacingAndGlyphs" textLength="129" x="130.5" y="907.5477">Persist reference rows,</text><text fill="#000000" font-family="sans-serif" font-size="12" lengthAdjust="spacingAndGlyphs" textLength="192" x="130.5" y="923.8918">relationship rows, rule documents,</text><text fill="#000000" font-family="sans-serif" font-size="12" lengthAdjust="spacingAndGlyphs" textLength="133" x="130.5" y="940.2359">and demo runtime rows</text><rect fill="#FFFFFF" height="305.4767" style="stroke: #000000; stroke-width: 2.0;" width="255" x="99" y="977.3539"/><path d="M212,978.3539 L212,989.4218 L202,999.4218 L99,999.4218 " fill="none" style="stroke: #000000; stroke-width: 2.0;"/><text fill="#000000" font-family="sans-serif" font-size="14" lengthAdjust="spacingAndGlyphs" textLength="103" x="102" y="993.3199">Runtime Usage</text><rect fill="#F8F8F8" height="52.6882" rx="12.5" ry="12.5" style="stroke: #333333; stroke-width: 1.5;" width="182" x="135.5" y="1016.4218"/><text fill="#000000" font-family="sans-serif" font-size="12" lengthAdjust="spacingAndGlyphs" textLength="162" x="145.5" y="1039.2499">Reference routes read tables</text><text fill="#000000" font-family="sans-serif" font-size="12" lengthAdjust="spacingAndGlyphs" textLength="86" x="145.5" y="1055.594">through Prisma</text><rect fill="#F8F8F8" height="52.6882" rx="12.5" ry="12.5" style="stroke: #333333; stroke-width: 1.5;" width="192" x="130.5" y="1089.1101"/><text fill="#000000" font-family="sans-serif" font-size="12" lengthAdjust="spacingAndGlyphs" textLength="172" x="140.5" y="1111.9382">Frontend maps references into</text><text fill="#000000" font-family="sans-serif" font-size="12" lengthAdjust="spacingAndGlyphs" textLength="83" x="140.5" y="1128.2823">builder options</text><rect fill="#F8F8F8" height="52.6882" rx="12.5" ry="12.5" style="stroke: #333333; stroke-width: 1.5;" width="235" x="109" y="1161.7983"/><text fill="#000000" font-family="sans-serif" font-size="12" lengthAdjust="spacingAndGlyphs" textLength="175" x="119" y="1184.6264">Character effects service reads</text><text fill="#000000" font-family="sans-serif" font-size="12" lengthAdjust="spacingAndGlyphs" textLength="215" x="119" y="1200.9705">references plus owned character state</text><rect fill="#F8F8F8" height="36.3441" rx="12.5" ry="12.5" style="stroke: #333333; stroke-width: 1.5;" width="196" x="128.5" y="1234.4865"/><text fill="#000000" font-family="sans-serif" font-size="12" lengthAdjust="spacingAndGlyphs" textLength="176" x="138.5" y="1257.3146">Return derived dashboard state</text><ellipse cx="226.5" cy="1313.8306" fill="#FFFFFF" rx="11" ry="11" style="stroke: #000000; stroke-width: 1.0;"/><ellipse cx="226.5" cy="1313.8306" fill="#000000" rx="6" ry="6" style="stroke: #7F7F7F; stroke-width: 1.0;"/><line style="stroke: #A80036; stroke-width: 1.5;" x1="226.5" x2="226.5" y1="54.5158" y2="74.5158"/><polygon fill="#A80036" points="222.5,64.5158,226.5,74.5158,230.5,64.5158,226.5,68.5158" style="stroke: #A80036; stroke-width: 1.0;"/><line style="stroke: #A80036; stroke-width: 1.5;" x1="226.5" x2="226.5" y1="110.86" y2="130.86"/><polygon fill="#A80036" points="222.5,120.86,226.5,130.86,230.5,120.86,226.5,124.86" style="stroke: #A80036; stroke-width: 1.0;"/><line style="stroke: #A80036; stroke-width: 1.5;" x1="226.5" x2="226.5" y1="167.2041" y2="187.2041"/><polygon fill="#A80036" points="222.5,177.2041,226.5,187.2041,230.5,177.2041,226.5,181.2041" style="stroke: #A80036; stroke-width: 1.0;"/><line style="stroke: #A80036; stroke-width: 1.5;" x1="226.5" x2="226.5" y1="326.9063" y2="346.9063"/><polygon fill="#A80036" points="222.5,336.9063,226.5,346.9063,230.5,336.9063,226.5,340.9063" style="stroke: #A80036; stroke-width: 1.0;"/><line style="stroke: #A80036; stroke-width: 1.5;" x1="226.5" x2="226.5" y1="239.8923" y2="290.5622"/><polygon fill="#A80036" points="222.5,280.5622,226.5,290.5622,230.5,280.5622,226.5,284.5622" style="stroke: #A80036; stroke-width: 1.0;"/><line style="stroke: #A80036; stroke-width: 1.5;" x1="226.5" x2="226.5" y1="514.9527" y2="534.9527"/><polygon fill="#A80036" points="222.5,524.9527,226.5,534.9527,230.5,524.9527,226.5,528.9527" style="stroke: #A80036; stroke-width: 1.0;"/><line style="stroke: #A80036; stroke-width: 1.5;" x1="226.5" x2="226.5" y1="603.985" y2="623.985"/><polygon fill="#A80036" points="222.5,613.985,226.5,623.985,230.5,613.985,226.5,617.985" style="stroke: #A80036; stroke-width: 1.0;"/><line style="stroke: #A80036; stroke-width: 1.5;" x1="226.5" x2="226.5" y1="676.6732" y2="696.6732"/><polygon fill="#A80036" points="222.5,686.6732,226.5,696.6732,230.5,686.6732,226.5,690.6732" style="stroke: #A80036; stroke-width: 1.0;"/><line style="stroke: #A80036; stroke-width: 1.5;" x1="226.5" x2="226.5" y1="749.3615" y2="769.3615"/><polygon fill="#A80036" points="222.5,759.3615,226.5,769.3615,230.5,759.3615,226.5,763.3615" style="stroke: #A80036; stroke-width: 1.0;"/><line style="stroke: #A80036; stroke-width: 1.5;" x1="226.5" x2="226.5" y1="399.5945" y2="462.2644"/><polygon fill="#A80036" points="222.5,452.2644,226.5,462.2644,230.5,452.2644,226.5,456.2644" style="stroke: #A80036; stroke-width: 1.0;"/><line style="stroke: #A80036; stroke-width: 1.5;" x1="226.5" x2="226.5" y1="822.0497" y2="884.7196"/><polygon fill="#A80036" points="222.5,874.7196,226.5,884.7196,230.5,874.7196,226.5,878.7196" style="stroke: #A80036; stroke-width: 1.0;"/><line style="stroke: #A80036; stroke-width: 1.5;" x1="226.5" x2="226.5" y1="1069.1101" y2="1089.1101"/><polygon fill="#A80036" points="222.5,1079.1101,226.5,1089.1101,230.5,1079.1101,226.5,1083.1101" style="stroke: #A80036; stroke-width: 1.0;"/><line style="stroke: #A80036; stroke-width: 1.5;" x1="226.5" x2="226.5" y1="1141.7983" y2="1161.7983"/><polygon fill="#A80036" points="222.5,1151.7983,226.5,1161.7983,230.5,1151.7983,226.5,1155.7983" style="stroke: #A80036; stroke-width: 1.0;"/><line style="stroke: #A80036; stroke-width: 1.5;" x1="226.5" x2="226.5" y1="1214.4865" y2="1234.4865"/><polygon fill="#A80036" points="222.5,1224.4865,226.5,1234.4865,230.5,1224.4865,226.5,1228.4865" style="stroke: #A80036; stroke-width: 1.0;"/><line style="stroke: #A80036; stroke-width: 1.5;" x1="226.5" x2="226.5" y1="953.7519" y2="1016.4218"/><polygon fill="#A80036" points="222.5,1006.4218,226.5,1016.4218,230.5,1006.4218,226.5,1010.4218" style="stroke: #A80036; stroke-width: 1.0;"/><line style="stroke: #A80036; stroke-width: 1.5;" x1="226.5" x2="226.5" y1="1270.8306" y2="1302.8306"/><polygon fill="#A80036" points="222.5,1292.8306,226.5,1302.8306,230.5,1292.8306,226.5,1296.8306" style="stroke: #A80036; stroke-width: 1.0;"/><!--MD5=[bd133f34bb44f6ebba56c1a41cc48e91]
@startuml
title D&D Simple - Reference Data Transformation Flow

skinparam shadowing false
skinparam backgroundColor #FFFFFF
skinparam ActivityBorderColor #333333
skinparam ActivityBackgroundColor #F8F8F8

start
:Run `apps/api/prisma/seed.ts`;
:Load environment and Prisma client;
:Use active data directory
`seed-data/5e/mixed`;

partition "Seed Inputs" {
  :Read configured JSON arrays;
  :Read curated override modules
  from `reference-overrides/`;
}

partition "Normalize and Curate" {
  :Upsert raw items into
  `RefRuleDocument`;
  :Seed normalized ability, skill,
  species, class, background,
  proficiency, equipment tables;
  :Rebuild relationship rows
  and choice rows;
  :Apply curated species, class,
  feat, and equipment overrides;
  :Seed minimum demo references
  and demo character data;
}

partition "Runtime PostgreSQL State" {
  :Persist reference rows,
  relationship rows, rule documents,
  and demo runtime rows;
}

partition "Runtime Usage" {
  :Reference routes read tables
  through Prisma;
  :Frontend maps references into
  builder options;
  :Character effects service reads
  references plus owned character state;
  :Return derived dashboard state;
}

stop
@enduml

PlantUML version 1.2020.02(Sun Mar 01 11:22:07 CET 2020)
(GPL source distribution)
Java Runtime: OpenJDK Runtime Environment
JVM: OpenJDK 64-Bit Server VM
Java Version: 21.0.11+10-1-24.04.2-Ubuntu
Operating System: Linux
Default Encoding: UTF-8
Language: en
Country: null
--></g></svg>