<?xml version="1.0" encoding="us-ascii" standalone="no"?><svg xmlns="http://www.w3.org/2000/svg" xmlns:xlink="http://www.w3.org/1999/xlink" contentStyleType="text/css" height="931px" preserveAspectRatio="none" style="width:1358px;height:931px;background:#FFFFFF;" version="1.1" viewBox="0 0 1358 931" width="1358px" zoomAndPan="magnify"><defs/><g><text fill="#000000" font-family="sans-serif" font-size="14" font-weight="bold" lengthAdjust="spacing" textLength="362" x="496.5" y="29.9659">D&amp;D Simple - Room Realtime Board Synchronization</text><line style="stroke:#181818;stroke-width:0.5;stroke-dasharray:5.0,5.0;" x1="30" x2="30" y1="124.1358" y2="847.6682"/><line style="stroke:#181818;stroke-width:0.5;stroke-dasharray:5.0,5.0;" x1="213.5" x2="213.5" y1="124.1358" y2="847.6682"/><line style="stroke:#181818;stroke-width:0.5;stroke-dasharray:5.0,5.0;" x1="442" x2="442" y1="124.1358" y2="847.6682"/><line style="stroke:#181818;stroke-width:0.5;stroke-dasharray:5.0,5.0;" x1="761.5" x2="761.5" y1="124.1358" y2="847.6682"/><line style="stroke:#181818;stroke-width:0.5;stroke-dasharray:5.0,5.0;" x1="1030" x2="1030" y1="124.1358" y2="847.6682"/><line style="stroke:#181818;stroke-width:0.5;stroke-dasharray:5.0,5.0;" x1="1228.5" x2="1228.5" y1="124.1358" y2="847.6682"/><text fill="#000000" font-family="sans-serif" font-size="14" lengthAdjust="spacing" textLength="44" x="5" y="120.0339">User A</text><ellipse cx="30" cy="53.5679" fill="#E2E2F0" rx="8" ry="8" style="stroke:#181818;stroke-width:0.5;"/><path d="M30,61.5679 L30,88.5679 M17,69.5679 L43,69.5679 M30,88.5679 L17,103.5679 M30,88.5679 L43,103.5679 " fill="none" style="stroke:#181818;stroke-width:0.5;"/><text fill="#000000" font-family="sans-serif" font-size="14" lengthAdjust="spacing" textLength="44" x="5" y="861.6341">User A</text><ellipse cx="30" cy="874.2361" fill="#E2E2F0" rx="8" ry="8" style="stroke:#181818;stroke-width:0.5;"/><path d="M30,882.2361 L30,909.2361 M17,890.2361 L43,890.2361 M30,909.2361 L17,924.2361 M30,909.2361 L43,924.2361 " fill="none" style="stroke:#181818;stroke-width:0.5;"/><rect fill="#E2E2F0" height="52.1358" rx="2.5" ry="2.5" style="stroke:#181818;stroke-width:0.5;" width="117" x="155.5" y="71"/><text fill="#000000" font-family="sans-serif" font-size="14" lengthAdjust="spacing" textLength="86" x="171" y="92.9659">Web Client A</text><text fill="#000000" font-family="sans-serif" font-size="14" lengthAdjust="spacing" textLength="103" x="162.5" y="112.0339">(Tactical Board)</text><rect fill="#E2E2F0" height="52.1358" rx="2.5" ry="2.5" style="stroke:#181818;stroke-width:0.5;" width="117" x="155.5" y="846.6682"/><text fill="#000000" font-family="sans-serif" font-size="14" lengthAdjust="spacing" textLength="86" x="171" y="868.6341">Web Client A</text><text fill="#000000" font-family="sans-serif" font-size="14" lengthAdjust="spacing" textLength="103" x="162.5" y="887.702">(Tactical Board)</text><rect fill="#E2E2F0" height="33.0679" rx="2.5" ry="2.5" style="stroke:#181818;stroke-width:0.5;" width="92" x="396" y="90.0679"/><text fill="#000000" font-family="sans-serif" font-size="14" lengthAdjust="spacing" textLength="78" x="403" y="112.0339">Express API</text><rect fill="#E2E2F0" height="33.0679" rx="2.5" ry="2.5" style="stroke:#181818;stroke-width:0.5;" width="92" x="396" y="846.6682"/><text fill="#000000" font-family="sans-serif" font-size="14" lengthAdjust="spacing" textLength="78" x="403" y="868.6341">Express API</text><text fill="#000000" font-family="sans-serif" font-size="14" lengthAdjust="spacing" textLength="77" x="720.5" y="120.0339">PostgreSQL</text><path d="M744,69.0679 C744,59.0679 762,59.0679 762,59.0679 C762,59.0679 780,59.0679 780,69.0679 L780,95.0679 C780,105.0679 762,105.0679 762,105.0679 C762,105.0679 744,105.0679 744,95.0679 L744,69.0679 " fill="#E2E2F0" style="stroke:#181818;stroke-width:1.5;"/><path d="M744,69.0679 C744,79.0679 762,79.0679 762,79.0679 C762,79.0679 780,79.0679 780,69.0679 " fill="none" style="stroke:#181818;stroke-width:1.5;"/><text fill="#000000" font-family="sans-serif" font-size="14" lengthAdjust="spacing" textLength="77" x="720.5" y="861.6341">PostgreSQL</text><path d="M744,875.7361 C744,865.7361 762,865.7361 762,865.7361 C762,865.7361 780,865.7361 780,875.7361 L780,901.7361 C780,911.7361 762,911.7361 762,911.7361 C762,911.7361 744,911.7361 744,901.7361 L744,875.7361 " fill="#E2E2F0" style="stroke:#181818;stroke-width:1.5;"/><path d="M744,875.7361 C744,885.7361 762,885.7361 762,885.7361 C762,885.7361 780,885.7361 780,875.7361 " fill="none" style="stroke:#181818;stroke-width:1.5;"/><rect fill="#E2E2F0" height="33.0679" rx="2.5" ry="2.5" style="stroke:#181818;stroke-width:0.5;" width="124" x="968" y="90.0679"/><text fill="#000000" font-family="sans-serif" font-size="14" lengthAdjust="spacing" textLength="110" x="975" y="112.0339">Socket.IO Server</text><rect fill="#E2E2F0" height="33.0679" rx="2.5" ry="2.5" style="stroke:#181818;stroke-width:0.5;" width="124" x="968" y="846.6682"/><text fill="#000000" font-family="sans-serif" font-size="14" lengthAdjust="spacing" textLength="110" x="975" y="868.6341">Socket.IO Server</text><rect fill="#E2E2F0" height="52.1358" rx="2.5" ry="2.5" style="stroke:#181818;stroke-width:0.5;" width="117" x="1170.5" y="71"/><text fill="#000000" font-family="sans-serif" font-size="14" lengthAdjust="spacing" textLength="86" x="1186" y="92.9659">Web Client B</text><text fill="#000000" font-family="sans-serif" font-size="14" lengthAdjust="spacing" textLength="103" x="1177.5" y="112.0339">(Tactical Board)</text><rect fill="#E2E2F0" height="52.1358" rx="2.5" ry="2.5" style="stroke:#181818;stroke-width:0.5;" width="117" x="1170.5" y="846.6682"/><text fill="#000000" font-family="sans-serif" font-size="14" lengthAdjust="spacing" textLength="86" x="1186" y="868.6341">Web Client B</text><text fill="#000000" font-family="sans-serif" font-size="14" lengthAdjust="spacing" textLength="103" x="1177.5" y="887.702">(Tactical Board)</text><path d="M1106,139.1358 L1106,166.1358 L1351,166.1358 L1351,149.1358 L1341,139.1358 L1106,139.1358 " fill="#FEFFDD" style="stroke:#181818;stroke-width:0.5;"/><path d="M1341,139.1358 L1341,149.1358 L1351,149.1358 L1341,139.1358 " fill="#FEFFDD" style="stroke:#181818;stroke-width:0.5;"/><text fill="#000000" font-family="sans-serif" font-size="13" lengthAdjust="spacing" textLength="224" x="1112" y="158.0328">Already connected to the same room.</text><polygon fill="#181818" points="202,191.5479,212,195.5479,202,199.5479,206,195.5479" style="stroke:#181818;stroke-width:1.0;"/><line style="stroke:#181818;stroke-width:1.0;" x1="30" x2="208" y1="195.5479" y2="195.5479"/><text fill="#000000" font-family="sans-serif" font-size="13" font-weight="bold" lengthAdjust="spacing" textLength="7" x="37" y="189.7389">1</text><text fill="#000000" font-family="sans-serif" font-size="13" lengthAdjust="spacing" textLength="149" x="48" y="189.7389">Open or join room board</text><polygon fill="#181818" points="430,223.2539,440,227.2539,430,231.2539,434,227.2539" style="stroke:#181818;stroke-width:1.0;"/><line style="stroke:#181818;stroke-width:1.0;" x1="214" x2="436" y1="227.2539" y2="227.2539"/><text fill="#000000" font-family="sans-serif" font-size="13" font-weight="bold" lengthAdjust="spacing" textLength="7" x="221" y="221.4449">2</text><text fill="#000000" font-family="sans-serif" font-size="13" lengthAdjust="spacing" textLength="121" x="232" y="221.4449">REST load/join room</text><polygon fill="#181818" points="750,254.9599,760,258.9599,750,262.9599,754,258.9599" style="stroke:#181818;stroke-width:1.0;"/><line style="stroke:#181818;stroke-width:1.0;" x1="442" x2="756" y1="258.9599" y2="258.9599"/><text fill="#000000" font-family="sans-serif" font-size="13" font-weight="bold" lengthAdjust="spacing" textLength="7" x="449" y="253.1509">3</text><text fill="#000000" font-family="sans-serif" font-size="13" lengthAdjust="spacing" textLength="285" x="460" y="253.1509">Load Room, RoomPlayer, boardState via Prisma</text><polygon fill="#181818" points="453,286.6659,443,290.6659,453,294.6659,449,290.6659" style="stroke:#181818;stroke-width:1.0;"/><line style="stroke:#181818;stroke-width:1.0;stroke-dasharray:2.0,2.0;" x1="447" x2="761" y1="290.6659" y2="290.6659"/><text fill="#000000" font-family="sans-serif" font-size="13" font-weight="bold" lengthAdjust="spacing" textLength="7" x="459" y="284.8569">4</text><text fill="#000000" font-family="sans-serif" font-size="13" lengthAdjust="spacing" textLength="69" x="470" y="284.8569">Room state</text><polygon fill="#181818" points="225,318.3719,215,322.3719,225,326.3719,221,322.3719" style="stroke:#181818;stroke-width:1.0;"/><line style="stroke:#181818;stroke-width:1.0;stroke-dasharray:2.0,2.0;" x1="219" x2="441" y1="322.3719" y2="322.3719"/><text fill="#000000" font-family="sans-serif" font-size="13" font-weight="bold" lengthAdjust="spacing" textLength="7" x="231" y="316.5629">5</text><text fill="#000000" font-family="sans-serif" font-size="13" lengthAdjust="spacing" textLength="193" x="242" y="316.5629">Room state and board snapshot</text><polygon fill="#181818" points="1018,350.0779,1028,354.0779,1018,358.0779,1022,354.0779" style="stroke:#181818;stroke-width:1.0;"/><line style="stroke:#181818;stroke-width:1.0;" x1="214" x2="1024" y1="354.0779" y2="354.0779"/><text fill="#000000" font-family="sans-serif" font-size="13" font-weight="bold" lengthAdjust="spacing" textLength="7" x="221" y="348.2689">6</text><text fill="#000000" font-family="sans-serif" font-size="13" lengthAdjust="spacing" textLength="159" x="232" y="348.2689">Connect with bearer token</text><polygon fill="#181818" points="773,381.784,763,385.784,773,389.784,769,385.784" style="stroke:#181818;stroke-width:1.0;"/><line style="stroke:#181818;stroke-width:1.0;" x1="767" x2="1029" y1="385.784" y2="385.784"/><text fill="#000000" font-family="sans-serif" font-size="13" font-weight="bold" lengthAdjust="spacing" textLength="7" x="779" y="379.975">7</text><text fill="#000000" font-family="sans-serif" font-size="13" lengthAdjust="spacing" textLength="127" x="790" y="379.975">Verify user via Prisma</text><polygon fill="#181818" points="1018,413.49,1028,417.49,1018,421.49,1022,417.49" style="stroke:#181818;stroke-width:1.0;"/><line style="stroke:#181818;stroke-width:1.0;stroke-dasharray:2.0,2.0;" x1="762" x2="1024" y1="417.49" y2="417.49"/><text fill="#000000" font-family="sans-serif" font-size="13" font-weight="bold" lengthAdjust="spacing" textLength="7" x="769" y="411.681">8</text><text fill="#000000" font-family="sans-serif" font-size="13" lengthAdjust="spacing" textLength="70" x="780" y="411.681">User record</text><polygon fill="#181818" points="225,445.196,215,449.196,225,453.196,221,449.196" style="stroke:#181818;stroke-width:1.0;"/><line style="stroke:#181818;stroke-width:1.0;stroke-dasharray:2.0,2.0;" x1="219" x2="1029" y1="449.196" y2="449.196"/><text fill="#000000" font-family="sans-serif" font-size="13" font-weight="bold" lengthAdjust="spacing" textLength="7" x="231" y="443.387">9</text><text fill="#000000" font-family="sans-serif" font-size="13" lengthAdjust="spacing" textLength="106" x="242" y="443.387">Socket connected</text><polygon fill="#181818" points="1018,476.902,1028,480.902,1018,484.902,1022,480.902" style="stroke:#181818;stroke-width:1.0;"/><line style="stroke:#181818;stroke-width:1.0;" x1="214" x2="1024" y1="480.902" y2="480.902"/><text fill="#000000" font-family="sans-serif" font-size="13" font-weight="bold" lengthAdjust="spacing" textLength="14" x="221" y="475.093">10</text><text fill="#000000" font-family="sans-serif" font-size="13" lengthAdjust="spacing" textLength="204" x="239" y="475.093">room:join(roomCode, characterId)</text><polygon fill="#181818" points="773,508.608,763,512.608,773,516.608,769,512.608" style="stroke:#181818;stroke-width:1.0;"/><line style="stroke:#181818;stroke-width:1.0;" x1="767" x2="1029" y1="512.608" y2="512.608"/><text fill="#000000" font-family="sans-serif" font-size="13" font-weight="bold" lengthAdjust="spacing" textLength="14" x="779" y="506.799">11</text><text fill="#000000" font-family="sans-serif" font-size="13" lengthAdjust="spacing" textLength="226" x="797" y="506.799">Join room and ensure character token</text><polygon fill="#181818" points="1018,540.314,1028,544.314,1018,548.314,1022,544.314" style="stroke:#181818;stroke-width:1.0;"/><line style="stroke:#181818;stroke-width:1.0;stroke-dasharray:2.0,2.0;" x1="762" x2="1024" y1="544.314" y2="544.314"/><text fill="#000000" font-family="sans-serif" font-size="13" font-weight="bold" lengthAdjust="spacing" textLength="14" x="769" y="538.505">12</text><text fill="#000000" font-family="sans-serif" font-size="13" lengthAdjust="spacing" textLength="122" x="787" y="538.505">Updated room state</text><polygon fill="#181818" points="225,572.0201,215,576.0201,225,580.0201,221,576.0201" style="stroke:#181818;stroke-width:1.0;"/><line style="stroke:#181818;stroke-width:1.0;stroke-dasharray:2.0,2.0;" x1="219" x2="1029" y1="576.0201" y2="576.0201"/><text fill="#000000" font-family="sans-serif" font-size="13" font-weight="bold" lengthAdjust="spacing" textLength="14" x="231" y="570.2111">13</text><text fill="#000000" font-family="sans-serif" font-size="13" lengthAdjust="spacing" textLength="219" x="249" y="570.2111">room:update and acknowledgement</text><polygon fill="#181818" points="1217,603.7261,1227,607.7261,1217,611.7261,1221,607.7261" style="stroke:#181818;stroke-width:1.0;"/><line style="stroke:#181818;stroke-width:1.0;stroke-dasharray:2.0,2.0;" x1="1030" x2="1223" y1="607.7261" y2="607.7261"/><text fill="#000000" font-family="sans-serif" font-size="13" font-weight="bold" lengthAdjust="spacing" textLength="14" x="1037" y="601.9171">14</text><text fill="#000000" font-family="sans-serif" font-size="13" lengthAdjust="spacing" textLength="79" x="1055" y="601.9171">room:update</text><polygon fill="#181818" points="202,635.4321,212,639.4321,202,643.4321,206,639.4321" style="stroke:#181818;stroke-width:1.0;"/><line style="stroke:#181818;stroke-width:1.0;" x1="30" x2="208" y1="639.4321" y2="639.4321"/><text fill="#000000" font-family="sans-serif" font-size="13" font-weight="bold" lengthAdjust="spacing" textLength="14" x="37" y="633.6231">15</text><text fill="#000000" font-family="sans-serif" font-size="13" lengthAdjust="spacing" textLength="130" x="55" y="633.6231">Change tactical board</text><polygon fill="#181818" points="1018,667.1381,1028,671.1381,1018,675.1381,1022,671.1381" style="stroke:#181818;stroke-width:1.0;"/><line style="stroke:#181818;stroke-width:1.0;" x1="214" x2="1024" y1="671.1381" y2="671.1381"/><text fill="#000000" font-family="sans-serif" font-size="13" font-weight="bold" lengthAdjust="spacing" textLength="14" x="221" y="665.3291">16</text><text fill="#000000" font-family="sans-serif" font-size="13" lengthAdjust="spacing" textLength="144" x="239" y="665.3291">board:state(boardState)</text><polygon fill="#181818" points="773,698.8441,763,702.8441,773,706.8441,769,702.8441" style="stroke:#181818;stroke-width:1.0;"/><line style="stroke:#181818;stroke-width:1.0;" x1="767" x2="1029" y1="702.8441" y2="702.8441"/><text fill="#000000" font-family="sans-serif" font-size="13" font-weight="bold" lengthAdjust="spacing" textLength="14" x="779" y="697.0351">17</text><text fill="#000000" font-family="sans-serif" font-size="13" lengthAdjust="spacing" textLength="195" x="797" y="697.0351">Persist/process boardState JSON</text><polygon fill="#181818" points="1018,730.5501,1028,734.5501,1018,738.5501,1022,734.5501" style="stroke:#181818;stroke-width:1.0;"/><line style="stroke:#181818;stroke-width:1.0;stroke-dasharray:2.0,2.0;" x1="762" x2="1024" y1="734.5501" y2="734.5501"/><text fill="#000000" font-family="sans-serif" font-size="13" font-weight="bold" lengthAdjust="spacing" textLength="14" x="769" y="728.7411">18</text><text fill="#000000" font-family="sans-serif" font-size="13" lengthAdjust="spacing" textLength="89" x="787" y="728.7411">Updated room</text><polygon fill="#181818" points="225,762.2562,215,766.2562,225,770.2562,221,766.2562" style="stroke:#181818;stroke-width:1.0;"/><line style="stroke:#181818;stroke-width:1.0;stroke-dasharray:2.0,2.0;" x1="219" x2="1029" y1="766.2562" y2="766.2562"/><text fill="#000000" font-family="sans-serif" font-size="13" font-weight="bold" lengthAdjust="spacing" textLength="14" x="231" y="760.4472">19</text><text fill="#000000" font-family="sans-serif" font-size="13" lengthAdjust="spacing" textLength="157" x="249" y="760.4472">board:update(boardState)</text><polygon fill="#181818" points="1217,793.9622,1227,797.9622,1217,801.9622,1221,797.9622" style="stroke:#181818;stroke-width:1.0;"/><line style="stroke:#181818;stroke-width:1.0;stroke-dasharray:2.0,2.0;" x1="1030" x2="1223" y1="797.9622" y2="797.9622"/><text fill="#000000" font-family="sans-serif" font-size="13" font-weight="bold" lengthAdjust="spacing" textLength="14" x="1037" y="792.1532">20</text><text fill="#000000" font-family="sans-serif" font-size="13" lengthAdjust="spacing" textLength="157" x="1055" y="792.1532">board:update(boardState)</text><polygon fill="#181818" points="225,825.6682,215,829.6682,225,833.6682,221,829.6682" style="stroke:#181818;stroke-width:1.0;"/><line style="stroke:#181818;stroke-width:1.0;stroke-dasharray:2.0,2.0;" x1="219" x2="1029" y1="829.6682" y2="829.6682"/><text fill="#000000" font-family="sans-serif" font-size="13" font-weight="bold" lengthAdjust="spacing" textLength="14" x="231" y="823.8592">21</text><text fill="#000000" font-family="sans-serif" font-size="13" lengthAdjust="spacing" textLength="176" x="249" y="823.8592">Acknowledge update callback</text><!--SRC=[ZLF1Sjem4BthAtOuTCWC97SEdR4X1pAPGd7QNdfPsrkiOakUbKXAlxuh6UmGIAONhD6-z_Rjq-ArhmaMdnQGwQQLunGsrZQm8QozRWXIYrn2TZ15nTRel-YrDGhttffzanChXOMt3ADlZXYI4Q23S4nKY-nreLiq7aO_A8TvhKdEoKypVXAIBh3kv6yYgok_uTt_QPcSWsIzZ23vgX8zvkW8Hclh_9Of-_eOYulqd9pPOaV-Thc2ZFYPE8AwotVTfH-wIvKorXDOKUklafe9omCKrXWgF9NWBVYAmA44o1BdhI9JGc0g5SE1wUVJl323LKi69CFVLfk8XpmqLYU4W6Lk0MxkioUeBPPtFLI5YW0MgTGVfHJVRn9_rpKUY2UTMkPHZ3zhX3Lhrw0IndHG3brTW7I2P_w68g3C4UN06MnTPRrwRRCBLoZpBWjuqRw2d90bBsztPDGHShBydLZ_Ei0-RC-bkLulRXTJOIMMayAPn-Db_mRNRON4PY6xSJZDRKaJA2faUN3YPNdprjr3_o9XS39kppGGZXDTU6rbGsKBUCZqgkLePX_1KHwBdR4lDPLRQWHoIKhFILTtQLwXsHBuqmfVR59lCrPcqTzus92B2DR4JZj_rx8jmZ_nrJ8zPAil7qv_VUwkSJV3rSvd0_y_EcWdGuPmZ5PIg7F9zXy0]--></g></svg>