<?xml version="1.0" encoding="UTF-8" standalone="no"?><svg xmlns="http://www.w3.org/2000/svg" xmlns:xlink="http://www.w3.org/1999/xlink" contentScriptType="application/ecmascript" contentStyleType="text/css" height="1212px" preserveAspectRatio="none" style="width:2481px;height:1212px;" version="1.1" viewBox="0 0 2481 1212" width="2481px" zoomAndPan="magnify"><defs/><rect fill="#FFFFFF" height="100%" width="100%" x="0" y="0"/><g><text fill="#000000" font-family="sans-serif" font-size="18" lengthAdjust="spacingAndGlyphs" textLength="375" x="1051.75" y="29.2419">D&amp;D Simple - Dashboard Derived-State Flow</text><rect fill="#FFFFFF" height="100.0999" style="stroke: #000000; stroke-width: 2.0;" width="391" x="959" y="388.5259"/><rect fill="#FFFFFF" height="48.6879" style="stroke: none; stroke-width: 1.0;" width="391" x="959" y="439.9379"/><line style="stroke: #A80036; stroke-width: 1.0; stroke-dasharray: 5.0,5.0;" x1="26" x2="26" y1="123.5838" y2="1122.6281"/><line style="stroke: #A80036; stroke-width: 1.0; stroke-dasharray: 5.0,5.0;" x1="275" x2="275" y1="123.5838" y2="1122.6281"/><line style="stroke: #A80036; stroke-width: 1.0; stroke-dasharray: 5.0,5.0;" x1="574" x2="574" y1="123.5838" y2="1122.6281"/><line style="stroke: #A80036; stroke-width: 1.0; stroke-dasharray: 5.0,5.0;" x1="756" x2="756" y1="123.5838" y2="1122.6281"/><line style="stroke: #A80036; stroke-width: 1.0; stroke-dasharray: 5.0,5.0;" x1="1069" x2="1069" y1="123.5838" y2="1122.6281"/><line style="stroke: #A80036; stroke-width: 1.0; stroke-dasharray: 5.0,5.0;" x1="1275" x2="1275" y1="123.5838" y2="1122.6281"/><line style="stroke: #A80036; stroke-width: 1.0; stroke-dasharray: 5.0,5.0;" x1="1440" x2="1440" y1="123.5838" y2="1122.6281"/><line style="stroke: #A80036; stroke-width: 1.0; stroke-dasharray: 5.0,5.0;" x1="1571" x2="1571" y1="123.5838" y2="1122.6281"/><line style="stroke: #A80036; stroke-width: 1.0; stroke-dasharray: 5.0,5.0;" x1="1944" x2="1944" y1="123.5838" y2="1122.6281"/><line style="stroke: #A80036; stroke-width: 1.0; stroke-dasharray: 5.0,5.0;" x1="2264.5" x2="2264.5" y1="123.5838" y2="1122.6281"/><line style="stroke: #A80036; stroke-width: 1.0; stroke-dasharray: 5.0,5.0;" x1="2411.5" x2="2411.5" y1="123.5838" y2="1122.6281"/><text fill="#000000" font-family="sans-serif" font-size="14" lengthAdjust="spacingAndGlyphs" textLength="31" x="8" y="119.4818">User</text><ellipse cx="26.5" cy="51.5158" fill="#FEFECE" rx="8" ry="8" style="stroke: #A80036; stroke-width: 2.0;"/><path d="M26.5,59.5158 L26.5,86.5158 M13.5,67.5158 L39.5,67.5158 M26.5,86.5158 L13.5,101.5158 M26.5,86.5158 L39.5,101.5158 " fill="none" style="stroke: #A80036; stroke-width: 2.0;"/><text fill="#000000" font-family="sans-serif" font-size="14" lengthAdjust="spacingAndGlyphs" textLength="31" x="8" y="1136.594">User</text><ellipse cx="26.5" cy="1150.696" fill="#FEFECE" rx="8" ry="8" style="stroke: #A80036; stroke-width: 2.0;"/><path d="M26.5,1158.696 L26.5,1185.696 M13.5,1166.696 L39.5,1166.696 M26.5,1185.696 L13.5,1200.696 M26.5,1185.696 L39.5,1200.696 " fill="none" style="stroke: #A80036; stroke-width: 2.0;"/><rect fill="#FEFECE" height="33.0679" style="stroke: #A80036; stroke-width: 1.5;" width="187" x="182" y="89.5158"/><text fill="#000000" font-family="sans-serif" font-size="14" lengthAdjust="spacingAndGlyphs" textLength="173" x="189" y="111.4818">CharacterDashboardPage</text><rect fill="#FEFECE" height="33.0679" style="stroke: #A80036; stroke-width: 1.5;" width="187" x="182" y="1121.6281"/><text fill="#000000" font-family="sans-serif" font-size="14" lengthAdjust="spacingAndGlyphs" textLength="173" x="189" y="1143.594">CharacterDashboardPage</text><rect fill="#FEFECE" height="33.0679" style="stroke: #A80036; stroke-width: 1.5;" width="153" x="498" y="89.5158"/><text fill="#000000" font-family="sans-serif" font-size="14" lengthAdjust="spacingAndGlyphs" textLength="139" x="505" y="111.4818">useCharacterBuilder</text><rect fill="#FEFECE" height="33.0679" style="stroke: #A80036; stroke-width: 1.5;" width="153" x="498" y="1121.6281"/><text fill="#000000" font-family="sans-serif" font-size="14" lengthAdjust="spacingAndGlyphs" textLength="139" x="505" y="1143.594">useCharacterBuilder</text><rect fill="#FEFECE" height="33.0679" style="stroke: #A80036; stroke-width: 1.5;" width="190" x="661" y="89.5158"/><text fill="#000000" font-family="sans-serif" font-size="14" lengthAdjust="spacingAndGlyphs" textLength="176" x="668" y="111.4818">useCharacterDerivedState</text><rect fill="#FEFECE" height="33.0679" style="stroke: #A80036; stroke-width: 1.5;" width="190" x="661" y="1121.6281"/><text fill="#000000" font-family="sans-serif" font-size="14" lengthAdjust="spacingAndGlyphs" textLength="176" x="668" y="1143.594">useCharacterDerivedState</text><rect fill="#FEFECE" height="33.0679" style="stroke: #A80036; stroke-width: 1.5;" width="200" x="969" y="89.5158"/><text fill="#000000" font-family="sans-serif" font-size="14" lengthAdjust="spacingAndGlyphs" textLength="186" x="976" y="111.4818">fetchCharacterDerivedState</text><rect fill="#FEFECE" height="33.0679" style="stroke: #A80036; stroke-width: 1.5;" width="200" x="969" y="1121.6281"/><text fill="#000000" font-family="sans-serif" font-size="14" lengthAdjust="spacingAndGlyphs" textLength="186" x="976" y="1143.594">fetchCharacterDerivedState</text><rect fill="#FEFECE" height="33.0679" style="stroke: #A80036; stroke-width: 1.5;" width="130" x="1210" y="89.5158"/><text fill="#000000" font-family="sans-serif" font-size="14" lengthAdjust="spacingAndGlyphs" textLength="116" x="1217" y="111.4818">charactersRouter</text><rect fill="#FEFECE" height="33.0679" style="stroke: #A80036; stroke-width: 1.5;" width="130" x="1210" y="1121.6281"/><text fill="#000000" font-family="sans-serif" font-size="14" lengthAdjust="spacingAndGlyphs" textLength="116" x="1217" y="1143.594">charactersRouter</text><rect fill="#FEFECE" height="33.0679" style="stroke: #A80036; stroke-width: 1.5;" width="96" x="1392" y="89.5158"/><text fill="#000000" font-family="sans-serif" font-size="14" lengthAdjust="spacingAndGlyphs" textLength="82" x="1399" y="111.4818">requireAuth</text><rect fill="#FEFECE" height="33.0679" style="stroke: #A80036; stroke-width: 1.5;" width="96" x="1392" y="1121.6281"/><text fill="#000000" font-family="sans-serif" font-size="14" lengthAdjust="spacingAndGlyphs" textLength="82" x="1399" y="1143.594">requireAuth</text><rect fill="#FEFECE" height="33.0679" style="stroke: #A80036; stroke-width: 1.5;" width="147" x="1498" y="89.5158"/><text fill="#000000" font-family="sans-serif" font-size="14" lengthAdjust="spacingAndGlyphs" textLength="133" x="1505" y="111.4818">character.controller</text><rect fill="#FEFECE" height="33.0679" style="stroke: #A80036; stroke-width: 1.5;" width="147" x="1498" y="1121.6281"/><text fill="#000000" font-family="sans-serif" font-size="14" lengthAdjust="spacingAndGlyphs" textLength="133" x="1505" y="1143.594">character.controller</text><rect fill="#FEFECE" height="33.0679" style="stroke: #A80036; stroke-width: 1.5;" width="179" x="1855" y="89.5158"/><text fill="#000000" font-family="sans-serif" font-size="14" lengthAdjust="spacingAndGlyphs" textLength="165" x="1862" y="111.4818">character-effects.service</text><rect fill="#FEFECE" height="33.0679" style="stroke: #A80036; stroke-width: 1.5;" width="179" x="1855" y="1121.6281"/><text fill="#000000" font-family="sans-serif" font-size="14" lengthAdjust="spacingAndGlyphs" textLength="165" x="1862" y="1143.594">character-effects.service</text><text fill="#000000" font-family="sans-serif" font-size="14" lengthAdjust="spacingAndGlyphs" textLength="150" x="2186.5" y="119.4818">PostgreSQL via Prisma</text><path d="M2246.5,68.5158 C2246.5,58.5158 2264.5,58.5158 2264.5,58.5158 C2264.5,58.5158 2282.5,58.5158 2282.5,68.5158 L2282.5,94.5158 C2282.5,104.5158 2264.5,104.5158 2264.5,104.5158 C2264.5,104.5158 2246.5,104.5158 2246.5,94.5158 L2246.5,68.5158 " fill="#FEFECE" style="stroke: #000000; stroke-width: 1.5;"/><path d="M2246.5,68.5158 C2246.5,78.5158 2264.5,78.5158 2264.5,78.5158 C2264.5,78.5158 2282.5,78.5158 2282.5,68.5158 " fill="none" style="stroke: #000000; stroke-width: 1.5;"/><text fill="#000000" font-family="sans-serif" font-size="14" lengthAdjust="spacingAndGlyphs" textLength="150" x="2186.5" y="1136.594">PostgreSQL via Prisma</text><path d="M2246.5,1150.696 C2246.5,1140.696 2264.5,1140.696 2264.5,1140.696 C2264.5,1140.696 2282.5,1140.696 2282.5,1150.696 L2282.5,1176.696 C2282.5,1186.696 2264.5,1186.696 2264.5,1186.696 C2264.5,1186.696 2246.5,1186.696 2246.5,1176.696 L2246.5,1150.696 " fill="#FEFECE" style="stroke: #000000; stroke-width: 1.5;"/><path d="M2246.5,1150.696 C2246.5,1160.696 2264.5,1160.696 2264.5,1160.696 C2264.5,1160.696 2282.5,1160.696 2282.5,1150.696 " fill="none" style="stroke: #000000; stroke-width: 1.5;"/><rect fill="#FEFECE" height="33.0679" style="stroke: #A80036; stroke-width: 1.5;" width="118" x="2352.5" y="89.5158"/><text fill="#000000" font-family="sans-serif" font-size="14" lengthAdjust="spacingAndGlyphs" textLength="104" x="2359.5" y="111.4818">CharacterSheet</text><rect fill="#FEFECE" height="33.0679" style="stroke: #A80036; stroke-width: 1.5;" width="118" x="2352.5" y="1121.6281"/><text fill="#000000" font-family="sans-serif" font-size="14" lengthAdjust="spacingAndGlyphs" textLength="104" x="2359.5" y="1143.594">CharacterSheet</text><polygon fill="#A80036" points="263.5,153.2898,273.5,157.2898,263.5,161.2898,267.5,157.2898" style="stroke: #A80036; stroke-width: 1.0;"/><line style="stroke: #A80036; stroke-width: 1.0;" x1="26.5" x2="269.5" y1="157.2898" y2="157.2898"/><text fill="#000000" font-family="sans-serif" font-size="13" font-weight="bold" lengthAdjust="spacingAndGlyphs" textLength="7" x="33.5" y="151.4808">1</text><text fill="#000000" font-family="sans-serif" font-size="13" lengthAdjust="spacingAndGlyphs" textLength="214" x="44.5" y="151.4808">Edit dashboard build/resource state</text><polygon fill="#A80036" points="562.5,184.9958,572.5,188.9958,562.5,192.9958,566.5,188.9958" style="stroke: #A80036; stroke-width: 1.0;"/><line style="stroke: #A80036; stroke-width: 1.0;" x1="275.5" x2="568.5" y1="188.9958" y2="188.9958"/><text fill="#000000" font-family="sans-serif" font-size="13" font-weight="bold" lengthAdjust="spacingAndGlyphs" textLength="7" x="282.5" y="183.1868">2</text><text fill="#000000" font-family="sans-serif" font-size="13" lengthAdjust="spacingAndGlyphs" textLength="168" x="293.5" y="183.1868">Apply local builder mutation</text><polygon fill="#A80036" points="286.5,216.7018,276.5,220.7018,286.5,224.7018,282.5,220.7018" style="stroke: #A80036; stroke-width: 1.0;"/><line style="stroke: #A80036; stroke-width: 1.0; stroke-dasharray: 2.0,2.0;" x1="280.5" x2="573.5" y1="220.7018" y2="220.7018"/><text fill="#000000" font-family="sans-serif" font-size="13" font-weight="bold" lengthAdjust="spacingAndGlyphs" textLength="7" x="292.5" y="214.8928">3</text><text fill="#000000" font-family="sans-serif" font-size="13" lengthAdjust="spacingAndGlyphs" textLength="264" x="303.5" y="214.8928">builderState, selected refs, previewCharacter</text><line style="stroke: #A80036; stroke-width: 1.0;" x1="275.5" x2="317.5" y1="252.4078" y2="252.4078"/><line style="stroke: #A80036; stroke-width: 1.0;" x1="317.5" x2="317.5" y1="252.4078" y2="265.4078"/><line style="stroke: #A80036; stroke-width: 1.0;" x1="276.5" x2="317.5" y1="265.4078" y2="265.4078"/><polygon fill="#A80036" points="286.5,261.4078,276.5,265.4078,286.5,269.4078,282.5,265.4078" style="stroke: #A80036; stroke-width: 1.0;"/><text fill="#000000" font-family="sans-serif" font-size="13" font-weight="bold" lengthAdjust="spacingAndGlyphs" textLength="7" x="282.5" y="246.5988">4</text><text fill="#000000" font-family="sans-serif" font-size="13" lengthAdjust="spacingAndGlyphs" textLength="180" x="293.5" y="246.5988">Build feature-choice selections</text><line style="stroke: #A80036; stroke-width: 1.0;" x1="275.5" x2="317.5" y1="297.1138" y2="297.1138"/><line style="stroke: #A80036; stroke-width: 1.0;" x1="317.5" x2="317.5" y1="297.1138" y2="310.1138"/><line style="stroke: #A80036; stroke-width: 1.0;" x1="276.5" x2="317.5" y1="310.1138" y2="310.1138"/><polygon fill="#A80036" points="286.5,306.1138,276.5,310.1138,286.5,314.1138,282.5,310.1138" style="stroke: #A80036; stroke-width: 1.0;"/><text fill="#000000" font-family="sans-serif" font-size="13" font-weight="bold" lengthAdjust="spacingAndGlyphs" textLength="7" x="282.5" y="291.3048">5</text><text fill="#000000" font-family="sans-serif" font-size="13" lengthAdjust="spacingAndGlyphs" textLength="160" x="293.5" y="291.3048">Build builderActionPreview</text><polygon fill="#A80036" points="744,337.8199,754,341.8199,744,345.8199,748,341.8199" style="stroke: #A80036; stroke-width: 1.0;"/><line style="stroke: #A80036; stroke-width: 1.0;" x1="275.5" x2="750" y1="341.8199" y2="341.8199"/><text fill="#000000" font-family="sans-serif" font-size="13" font-weight="bold" lengthAdjust="spacingAndGlyphs" textLength="7" x="282.5" y="336.0109">6</text><text fill="#000000" font-family="sans-serif" font-size="13" lengthAdjust="spacingAndGlyphs" textLength="179" x="293.5" y="336.0109">characterId + preview payload</text><polygon fill="#A80036" points="1057,369.5259,1067,373.5259,1057,377.5259,1061,373.5259" style="stroke: #A80036; stroke-width: 1.0;"/><line style="stroke: #A80036; stroke-width: 1.0;" x1="756" x2="1063" y1="373.5259" y2="373.5259"/><text fill="#000000" font-family="sans-serif" font-size="13" font-weight="bold" lengthAdjust="spacingAndGlyphs" textLength="7" x="763" y="367.7169">7</text><text fill="#000000" font-family="sans-serif" font-size="13" lengthAdjust="spacingAndGlyphs" textLength="278" x="774" y="367.7169">fetchCharacterDerivedState(id, preview, token)</text><path d="M959,388.5259 L1022,388.5259 L1022,397.5259 L1012,407.5259 L959,407.5259 L959,388.5259 " fill="#EEEEEE" style="stroke: #000000; stroke-width: 1.0;"/><rect fill="none" height="100.0999" style="stroke: #000000; stroke-width: 2.0;" width="391" x="959" y="388.5259"/><text fill="#000000" font-family="sans-serif" font-size="13" font-weight="bold" lengthAdjust="spacingAndGlyphs" textLength="18" x="974" y="403.4229">alt</text><text fill="#000000" font-family="sans-serif" font-size="11" font-weight="bold" lengthAdjust="spacingAndGlyphs" textLength="146" x="1037" y="402.2848">[Body-only overrides exist]</text><polygon fill="#A80036" points="1263,427.9379,1273,431.9379,1263,435.9379,1267,431.9379" style="stroke: #A80036; stroke-width: 1.0;"/><line style="stroke: #A80036; stroke-width: 1.0;" x1="1069" x2="1269" y1="431.9379" y2="431.9379"/><text fill="#000000" font-family="sans-serif" font-size="13" font-weight="bold" lengthAdjust="spacingAndGlyphs" textLength="7" x="1076" y="426.1289">8</text><text fill="#000000" font-family="sans-serif" font-size="13" lengthAdjust="spacingAndGlyphs" textLength="171" x="1087" y="426.1289">POST /characters/:id/derived</text><line style="stroke: #000000; stroke-width: 1.0; stroke-dasharray: 2.0,2.0;" x1="959" x2="1350" y1="440.9379" y2="440.9379"/><text fill="#000000" font-family="sans-serif" font-size="11" font-weight="bold" lengthAdjust="spacingAndGlyphs" textLength="124" x="964" y="452.6968">[Query-only overrides]</text><polygon fill="#A80036" points="1263,476.6258,1273,480.6258,1263,484.6258,1267,480.6258" style="stroke: #A80036; stroke-width: 1.0;"/><line style="stroke: #A80036; stroke-width: 1.0;" x1="1069" x2="1269" y1="480.6258" y2="480.6258"/><text fill="#000000" font-family="sans-serif" font-size="13" font-weight="bold" lengthAdjust="spacingAndGlyphs" textLength="7" x="1076" y="474.8168">9</text><text fill="#000000" font-family="sans-serif" font-size="13" lengthAdjust="spacingAndGlyphs" textLength="162" x="1087" y="474.8168">GET /characters/:id/derived</text><polygon fill="#A80036" points="1428,515.3318,1438,519.3318,1428,523.3318,1432,519.3318" style="stroke: #A80036; stroke-width: 1.0;"/><line style="stroke: #A80036; stroke-width: 1.0;" x1="1275" x2="1434" y1="519.3318" y2="519.3318"/><text fill="#000000" font-family="sans-serif" font-size="13" font-weight="bold" lengthAdjust="spacingAndGlyphs" textLength="14" x="1282" y="513.5228">10</text><text fill="#000000" font-family="sans-serif" font-size="13" lengthAdjust="spacingAndGlyphs" textLength="123" x="1300" y="513.5228">require bearer token</text><polygon fill="#A80036" points="1286,547.0378,1276,551.0378,1286,555.0378,1282,551.0378" style="stroke: #A80036; stroke-width: 1.0;"/><line style="stroke: #A80036; stroke-width: 1.0; stroke-dasharray: 2.0,2.0;" x1="1280" x2="1439" y1="551.0378" y2="551.0378"/><text fill="#000000" font-family="sans-serif" font-size="13" font-weight="bold" lengthAdjust="spacingAndGlyphs" textLength="14" x="1292" y="545.2288">11</text><text fill="#000000" font-family="sans-serif" font-size="13" lengthAdjust="spacingAndGlyphs" textLength="113" x="1310" y="545.2288">authenticated user</text><polygon fill="#A80036" points="1559.5,578.7439,1569.5,582.7439,1559.5,586.7439,1563.5,582.7439" style="stroke: #A80036; stroke-width: 1.0;"/><line style="stroke: #A80036; stroke-width: 1.0;" x1="1275" x2="1565.5" y1="582.7439" y2="582.7439"/><text fill="#000000" font-family="sans-serif" font-size="13" font-weight="bold" lengthAdjust="spacingAndGlyphs" textLength="14" x="1282" y="576.9349">12</text><text fill="#000000" font-family="sans-serif" font-size="13" lengthAdjust="spacingAndGlyphs" textLength="128" x="1300" y="576.9349">derived-state handler</text><line style="stroke: #A80036; stroke-width: 1.0;" x1="1571.5" x2="1613.5" y1="614.4499" y2="614.4499"/><line style="stroke: #A80036; stroke-width: 1.0;" x1="1613.5" x2="1613.5" y1="614.4499" y2="627.4499"/><line style="stroke: #A80036; stroke-width: 1.0;" x1="1572.5" x2="1613.5" y1="627.4499" y2="627.4499"/><polygon fill="#A80036" points="1582.5,623.4499,1572.5,627.4499,1582.5,631.4499,1578.5,627.4499" style="stroke: #A80036; stroke-width: 1.0;"/><text fill="#000000" font-family="sans-serif" font-size="13" font-weight="bold" lengthAdjust="spacingAndGlyphs" textLength="14" x="1578.5" y="608.6409">13</text><text fill="#000000" font-family="sans-serif" font-size="13" lengthAdjust="spacingAndGlyphs" textLength="173" x="1596.5" y="608.6409">Validate id and preview input</text><line style="stroke: #A80036; stroke-width: 1.0;" x1="1571.5" x2="1613.5" y1="659.1559" y2="659.1559"/><line style="stroke: #A80036; stroke-width: 1.0;" x1="1613.5" x2="1613.5" y1="659.1559" y2="672.1559"/><line style="stroke: #A80036; stroke-width: 1.0;" x1="1572.5" x2="1613.5" y1="672.1559" y2="672.1559"/><polygon fill="#A80036" points="1582.5,668.1559,1572.5,672.1559,1582.5,676.1559,1578.5,672.1559" style="stroke: #A80036; stroke-width: 1.0;"/><text fill="#000000" font-family="sans-serif" font-size="13" font-weight="bold" lengthAdjust="spacingAndGlyphs" textLength="14" x="1578.5" y="653.3469">14</text><text fill="#000000" font-family="sans-serif" font-size="13" lengthAdjust="spacingAndGlyphs" textLength="165" x="1596.5" y="653.3469">Normalize override payload</text><polygon fill="#A80036" points="1932.5,699.8619,1942.5,703.8619,1932.5,707.8619,1936.5,703.8619" style="stroke: #A80036; stroke-width: 1.0;"/><line style="stroke: #A80036; stroke-width: 1.0;" x1="1571.5" x2="1938.5" y1="703.8619" y2="703.8619"/><text fill="#000000" font-family="sans-serif" font-size="13" font-weight="bold" lengthAdjust="spacingAndGlyphs" textLength="14" x="1578.5" y="698.0529">15</text><text fill="#000000" font-family="sans-serif" font-size="13" lengthAdjust="spacingAndGlyphs" textLength="331" x="1596.5" y="698.0529">findCharacterDerivedStateForUser(userId, id, overrides)</text><polygon fill="#A80036" points="2252.5,731.5679,2262.5,735.5679,2252.5,739.5679,2256.5,735.5679" style="stroke: #A80036; stroke-width: 1.0;"/><line style="stroke: #A80036; stroke-width: 1.0;" x1="1944.5" x2="2258.5" y1="735.5679" y2="735.5679"/><text fill="#000000" font-family="sans-serif" font-size="13" font-weight="bold" lengthAdjust="spacingAndGlyphs" textLength="14" x="1951.5" y="729.7589">16</text><text fill="#000000" font-family="sans-serif" font-size="13" lengthAdjust="spacingAndGlyphs" textLength="250" x="1969.5" y="729.7589">Read owned character and persisted state</text><polygon fill="#A80036" points="2252.5,763.2739,2262.5,767.2739,2252.5,771.2739,2256.5,767.2739" style="stroke: #A80036; stroke-width: 1.0;"/><line style="stroke: #A80036; stroke-width: 1.0;" x1="1944.5" x2="2258.5" y1="767.2739" y2="767.2739"/><text fill="#000000" font-family="sans-serif" font-size="13" font-weight="bold" lengthAdjust="spacingAndGlyphs" textLength="14" x="1951.5" y="761.4649">17</text><text fill="#000000" font-family="sans-serif" font-size="13" lengthAdjust="spacingAndGlyphs" textLength="244" x="1969.5" y="761.4649">Read reference rows and rule documents</text><line style="stroke: #A80036; stroke-width: 1.0;" x1="1944.5" x2="1986.5" y1="798.98" y2="798.98"/><line style="stroke: #A80036; stroke-width: 1.0;" x1="1986.5" x2="1986.5" y1="798.98" y2="811.98"/><line style="stroke: #A80036; stroke-width: 1.0;" x1="1945.5" x2="1986.5" y1="811.98" y2="811.98"/><polygon fill="#A80036" points="1955.5,807.98,1945.5,811.98,1955.5,815.98,1951.5,811.98" style="stroke: #A80036; stroke-width: 1.0;"/><text fill="#000000" font-family="sans-serif" font-size="13" font-weight="bold" lengthAdjust="spacingAndGlyphs" textLength="14" x="1951.5" y="793.171">18</text><text fill="#000000" font-family="sans-serif" font-size="13" lengthAdjust="spacingAndGlyphs" textLength="288" x="1969.5" y="793.171">Resolve effective class/species/background/level</text><line style="stroke: #A80036; stroke-width: 1.0;" x1="1944.5" x2="1986.5" y1="843.686" y2="843.686"/><line style="stroke: #A80036; stroke-width: 1.0;" x1="1986.5" x2="1986.5" y1="843.686" y2="856.686"/><line style="stroke: #A80036; stroke-width: 1.0;" x1="1945.5" x2="1986.5" y1="856.686" y2="856.686"/><polygon fill="#A80036" points="1955.5,852.686,1945.5,856.686,1955.5,860.686,1951.5,856.686" style="stroke: #A80036; stroke-width: 1.0;"/><text fill="#000000" font-family="sans-serif" font-size="13" font-weight="bold" lengthAdjust="spacingAndGlyphs" textLength="14" x="1951.5" y="837.877">19</text><text fill="#000000" font-family="sans-serif" font-size="13" lengthAdjust="spacingAndGlyphs" textLength="266" x="1969.5" y="837.877">Merge persisted and preview feature choices</text><line style="stroke: #A80036; stroke-width: 1.0;" x1="1944.5" x2="1986.5" y1="888.392" y2="888.392"/><line style="stroke: #A80036; stroke-width: 1.0;" x1="1986.5" x2="1986.5" y1="888.392" y2="901.392"/><line style="stroke: #A80036; stroke-width: 1.0;" x1="1945.5" x2="1986.5" y1="901.392" y2="901.392"/><polygon fill="#A80036" points="1955.5,897.392,1945.5,901.392,1955.5,905.392,1951.5,901.392" style="stroke: #A80036; stroke-width: 1.0;"/><text fill="#000000" font-family="sans-serif" font-size="13" font-weight="bold" lengthAdjust="spacingAndGlyphs" textLength="14" x="1951.5" y="882.583">20</text><text fill="#000000" font-family="sans-serif" font-size="13" lengthAdjust="spacingAndGlyphs" textLength="117" x="1969.5" y="882.583">Build active sources</text><line style="stroke: #A80036; stroke-width: 1.0;" x1="1944.5" x2="1986.5" y1="933.098" y2="933.098"/><line style="stroke: #A80036; stroke-width: 1.0;" x1="1986.5" x2="1986.5" y1="933.098" y2="946.098"/><line style="stroke: #A80036; stroke-width: 1.0;" x1="1945.5" x2="1986.5" y1="946.098" y2="946.098"/><polygon fill="#A80036" points="1955.5,942.098,1945.5,946.098,1955.5,950.098,1951.5,946.098" style="stroke: #A80036; stroke-width: 1.0;"/><text fill="#000000" font-family="sans-serif" font-size="13" font-weight="bold" lengthAdjust="spacingAndGlyphs" textLength="14" x="1951.5" y="927.289">21</text><text fill="#000000" font-family="sans-serif" font-size="13" lengthAdjust="spacingAndGlyphs" textLength="281" x="1969.5" y="927.289">Derive stats, actions, defenses, resources, spells</text><polygon fill="#A80036" points="1582.5,973.804,1572.5,977.804,1582.5,981.804,1578.5,977.804" style="stroke: #A80036; stroke-width: 1.0;"/><line style="stroke: #A80036; stroke-width: 1.0; stroke-dasharray: 2.0,2.0;" x1="1576.5" x2="1943.5" y1="977.804" y2="977.804"/><text fill="#000000" font-family="sans-serif" font-size="13" font-weight="bold" lengthAdjust="spacingAndGlyphs" textLength="14" x="1588.5" y="971.995">22</text><text fill="#000000" font-family="sans-serif" font-size="13" lengthAdjust="spacingAndGlyphs" textLength="135" x="1606.5" y="971.995">CharacterDerivedState</text><polygon fill="#A80036" points="1080,1005.51,1070,1009.51,1080,1013.51,1076,1009.51" style="stroke: #A80036; stroke-width: 1.0;"/><line style="stroke: #A80036; stroke-width: 1.0; stroke-dasharray: 2.0,2.0;" x1="1074" x2="1570.5" y1="1009.51" y2="1009.51"/><text fill="#000000" font-family="sans-serif" font-size="13" font-weight="bold" lengthAdjust="spacingAndGlyphs" textLength="14" x="1086" y="1003.701">23</text><text fill="#000000" font-family="sans-serif" font-size="13" lengthAdjust="spacingAndGlyphs" textLength="89" x="1104" y="1003.701">JSON response</text><polygon fill="#A80036" points="767,1037.2161,757,1041.2161,767,1045.2161,763,1041.2161" style="stroke: #A80036; stroke-width: 1.0;"/><line style="stroke: #A80036; stroke-width: 1.0; stroke-dasharray: 2.0,2.0;" x1="761" x2="1068" y1="1041.2161" y2="1041.2161"/><text fill="#000000" font-family="sans-serif" font-size="13" font-weight="bold" lengthAdjust="spacingAndGlyphs" textLength="14" x="773" y="1035.4071">24</text><text fill="#000000" font-family="sans-serif" font-size="13" lengthAdjust="spacingAndGlyphs" textLength="135" x="791" y="1035.4071">CharacterDerivedState</text><polygon fill="#A80036" points="286.5,1068.9221,276.5,1072.9221,286.5,1076.9221,282.5,1072.9221" style="stroke: #A80036; stroke-width: 1.0;"/><line style="stroke: #A80036; stroke-width: 1.0; stroke-dasharray: 2.0,2.0;" x1="280.5" x2="755" y1="1072.9221" y2="1072.9221"/><text fill="#000000" font-family="sans-serif" font-size="13" font-weight="bold" lengthAdjust="spacingAndGlyphs" textLength="14" x="292.5" y="1067.1131">25</text><text fill="#000000" font-family="sans-serif" font-size="13" lengthAdjust="spacingAndGlyphs" textLength="145" x="310.5" y="1067.1131">derivedState React state</text><polygon fill="#A80036" points="2399.5,1100.6281,2409.5,1104.6281,2399.5,1108.6281,2403.5,1104.6281" style="stroke: #A80036; stroke-width: 1.0;"/><line style="stroke: #A80036; stroke-width: 1.0;" x1="275.5" x2="2405.5" y1="1104.6281" y2="1104.6281"/><text fill="#000000" font-family="sans-serif" font-size="13" font-weight="bold" lengthAdjust="spacingAndGlyphs" textLength="14" x="282.5" y="1098.8191">26</text><text fill="#000000" font-family="sans-serif" font-size="13" lengthAdjust="spacingAndGlyphs" textLength="189" x="300.5" y="1098.8191">Render derived dashboard data</text><!--MD5=[2c2358e96375727ad2bbc89ea7322010]
@startuml
title D&D Simple - Dashboard Derived-State Flow

skinparam shadowing false
skinparam backgroundColor #FFFFFF
autonumber

actor User
participant "CharacterDashboardPage" as Page
participant "useCharacterBuilder" as Builder
participant "useCharacterDerivedState" as Hook
participant "fetchCharacterDerivedState" as Fetch
participant "charactersRouter" as Router
participant "requireAuth" as Auth
participant "character.controller" as Controller
participant "character-effects.service" as Effects
database "PostgreSQL via Prisma" as DB
participant "CharacterSheet" as Sheet

User -> Page: Edit dashboard build/resource state
Page -> Builder: Apply local builder mutation
Builder - -> Page: builderState, selected refs, previewCharacter
Page -> Page: Build feature-choice selections
Page -> Page: Build builderActionPreview
Page -> Hook: characterId + preview payload
Hook -> Fetch: fetchCharacterDerivedState(id, preview, token)

alt Body-only overrides exist
  Fetch -> Router: POST /characters/:id/derived
else Query-only overrides
  Fetch -> Router: GET /characters/:id/derived
end

Router -> Auth: require bearer token
Auth - -> Router: authenticated user
Router -> Controller: derived-state handler
Controller -> Controller: Validate id and preview input
Controller -> Controller: Normalize override payload
Controller -> Effects: findCharacterDerivedStateForUser(userId, id, overrides)
Effects -> DB: Read owned character and persisted state
Effects -> DB: Read reference rows and rule documents
Effects -> Effects: Resolve effective class/species/background/level
Effects -> Effects: Merge persisted and preview feature choices
Effects -> Effects: Build active sources
Effects -> Effects: Derive stats, actions, defenses, resources, spells
Effects - -> Controller: CharacterDerivedState
Controller - -> Fetch: JSON response
Fetch - -> Hook: CharacterDerivedState
Hook - -> Page: derivedState React state
Page -> Sheet: Render derived dashboard data

@enduml

PlantUML version 1.2020.02(Sun Mar 01 11:22:07 CET 2020)
(GPL source distribution)
Java Runtime: OpenJDK Runtime Environment
JVM: OpenJDK 64-Bit Server VM
Java Version: 21.0.11+10-1-24.04.2-Ubuntu
Operating System: Linux
Default Encoding: UTF-8
Language: en
Country: null
--></g></svg>